# xmcd CD database file
#
# Track frame offsets:
#	150
#	21754
#	44526
#	57502
#	67484
#	86296
#	107957
#	128871
#	141952
#	166723
#	178314
#	195680
#	222671
#	242304
#	262194
#
# Disc length: 3834 seconds
#
# Revision: 0
# Processed by: cddbd v1.5.1PL2 Copyright (c) Steve Scherf et al.
# Submitted via: CDex 1.51
#
DISCID=ea0ef80f
DTITLE=Annie Ross and Zoot Sims - A Gasser
DYEAR=1959
DGENRE=Jazz
TTITLE0=01-I´m.Just.A.Lucky.So.And.So
TTITLE1=02-You´re.Nearer
TTITLE2=03-I´m.Nobody´s.Baby
TTITLE3=04-Lucky.Day
TTITLE4=05-Invitation.To.The.Blues
TTITLE5=06-You´re.Driving.Me.Crazy
TTITLE6=07-Invitation.To.The.Blues.(Instrumental)
TTITLE7=08-Everything.I´ve.Got
TTITLE8=09-I.Didn´t.Know.About.You
TTITLE9=10-I.Was.Doing.All.Right
TTITLE10=11-You.Took.Advantage.Of.Me
TTITLE11=12-I.Don´t.Want.To.Cry.Annymore
TTITLE12=13-Bones.For.Zoot
TTITLE13=14-Funky.Old.Blues
TTITLE14=15-Brushes
EXTD=YEAR: 1959
EXTT0=
EXTT1=
EXTT2=
EXTT3=
EXTT4=
EXTT5=
EXTT6=
EXTT7=
EXTT8=
EXTT9=
EXTT10=
EXTT11=
EXTT12=
EXTT13=
EXTT14=
PLAYORDER=
